<?xml version="1.0" encoding="UTF-8"?>
<svg version="1.1" xmlns="http://www.w3.org/2000/svg" width="923" height="264">
<path d="M0 0 C3.91819241 1.9590962 5.89540711 3.67528387 8.921875 6.76171875 C9.61739471 7.46504082 9.61739471 7.46504082 10.32696533 8.18257141 C11.80617025 9.67951598 13.27852701 11.18295749 14.75 12.6875 C16.20797061 14.17337784 17.66747816 15.65765691 19.13018799 17.13887024 C20.46876681 18.49508167 21.80241101 19.85615843 23.13574219 21.2175293 C25.27988807 23.30045042 27.42999146 25.25382694 29.69433594 27.1965332 C34.82443433 31.64456598 39.56638808 36.46069957 44.34375 41.28125 C45.32176419 42.26368378 46.30008251 43.24581488 47.27868652 44.22766113 C50.87498984 47.83719318 54.46576596 51.45220706 58.05670166 55.06707764 C61.10355579 58.1338075 64.15255126 61.19837914 67.20429993 64.26023865 C68.61758629 65.67991157 70.02777111 67.10266999 71.43786621 68.5255127 C75.93147945 73.03609937 80.46797131 77.4131779 85.32067871 81.53723145 C86.94597383 82.95294064 88.47589095 84.47589095 90 86 C90.33 59.27 90.66 32.54 91 5 C99.25 5 107.5 5 116 5 C116 51.2 116 97.4 116 145 C108.1270025 138.25171643 108.1270025 138.25171643 105.39477539 135.49243164 C104.47330467 134.56600609 104.47330467 134.56600609 103.53321838 133.62086487 C102.89448288 132.97383102 102.25574738 132.32679718 101.59765625 131.66015625 C100.91626083 130.97497421 100.23486542 130.28979218 99.53282166 129.58384705 C96.64832015 126.68316355 93.76984634 123.77652617 90.89086914 120.87036133 C88.77441453 118.73568003 86.65485374 116.60411672 84.53515625 114.47265625 C83.89844498 113.82764664 83.2617337 113.18263702 82.60572815 112.51808167 C79.5085487 109.40433341 76.36523413 106.40751754 73.03881836 103.53881836 C68.77178051 99.85376227 64.80531497 95.91483245 60.84375 91.90625 C60.0971814 91.15589478 59.35061279 90.40553955 58.5814209 89.63244629 C55.42298888 86.45783496 52.27060721 83.27724084 49.11767578 80.09716797 C46.79930255 77.76059639 44.4778448 75.42712001 42.15625 73.09375 C41.45705444 72.3862561 40.75785889 71.67876221 40.03747559 70.9498291 C39.36317505 70.27222534 38.68887451 69.59462158 37.99414062 68.89648438 C37.41426392 68.31137085 36.83438721 67.72625732 36.23693848 67.12341309 C32.92185459 63.97657084 29.43989276 61.00990616 26 58 C25.67 85.06 25.34 112.12 25 140 C16.75 140 8.5 140 0 140 C0 93.8 0 47.6 0 0 Z " fill="#000000" transform="translate(151,12)"/>
<path d="M0 0 C12.85150182 -0.38943945 24.82674618 2.04306298 36.16015625 8.15234375 C37.01222656 8.60609375 37.86429688 9.05984375 38.7421875 9.52734375 C54.71684775 18.55756644 65.76502637 33.21170222 70.99707031 50.78051758 C76.14005673 69.86603749 73.31667603 88.65981736 64.07421875 105.96484375 C54.20447969 122.40098064 39.33499538 133.30494258 21 138.4609375 C20.06285156 138.68910156 19.12570312 138.91726562 18.16015625 139.15234375 C17.39445313 139.343125 16.62875 139.53390625 15.83984375 139.73046875 C-3.62843673 142.79544585 -22.67901593 138.21754937 -38.83984375 127.0859375 C-52.89599347 116.17289903 -62.23931585 101.60770301 -65.83984375 84.15234375 C-66.06671875 83.05921875 -66.29359375 81.96609375 -66.52734375 80.83984375 C-68.21872112 60.88159083 -64.47796079 41.75315962 -51.50390625 26.00390625 C-50.95476563 25.39289062 -50.405625 24.781875 -49.83984375 24.15234375 C-49.14632812 23.35570313 -48.4528125 22.5590625 -47.73828125 21.73828125 C-35.36102391 8.39342073 -18.07450425 0.96960889 0 0 Z M-31.83984375 38.15234375 C-41.37985582 49.56524163 -44.97719775 62.43173344 -43.83984375 77.15234375 C-41.30862957 90.23536642 -34.78782012 101.41938362 -23.83984375 109.15234375 C-11.72540213 116.24410944 0.08221436 118.94347838 14.03515625 116.6875 C25.1916623 113.66594628 36.20688027 107.31291337 42.30712891 97.26269531 C49.20695324 84.87629885 52.27503202 73.00700732 49.51171875 58.82421875 C45.70035026 46.38026352 38.4541594 36.06528229 27.19921875 29.3984375 C7.41618085 19.05843658 -16.09026602 21.35497706 -31.83984375 38.15234375 Z " fill="#000000" transform="translate(589.83984375,13.84765625)"/>
<path d="M0 0 C71.57328386 0 71.57328386 0 84.1953125 12.10546875 C93.82090604 22.4236788 96.55491876 33.00485241 96.2421875 46.83984375 C95.76580516 57.36506352 91.34443467 66.88989131 83.68359375 74.21484375 C80.23121361 76.99608574 77.42083819 79.18169587 73 80 C75.70293535 85.91800583 78.84087761 91.50231835 82.3125 97 C82.72081055 97.64670654 83.12912109 98.29341309 83.54980469 98.9597168 C84.4799625 100.43088129 85.41049141 101.9018112 86.34130859 103.37255859 C89.41999603 108.24933724 92.47943507 113.13775292 95.52084351 118.0378418 C96.25541971 119.21849119 96.99257478 120.39754006 97.73233032 121.57495117 C98.77828071 123.24009549 99.81510587 124.9109611 100.8515625 126.58203125 C101.45822754 127.55374268 102.06489258 128.5254541 102.68994141 129.52661133 C104 132 104 132 104 135 C94.75183714 137.06996435 85.00394204 138.61741596 76 135 C68.89990235 129.11071423 65.00382014 119.58384992 61.05078125 111.46484375 C60.70764389 110.76668549 60.36450653 110.06852722 60.01097107 109.34921265 C57.99259636 105.19622882 56.17592973 101.03771009 54.58822632 96.69998169 C52.87749564 93.48966823 50.32829027 90.79495552 48 88 C40.41 87.67 32.82 87.34 25 87 C25 102.84 25 118.68 25 135 C16.75 135 8.5 135 0 135 C0 90.45 0 45.9 0 0 Z M25 22 C25 35.86 25 49.72 25 64 C32.425 64.12375 32.425 64.12375 40 64.25 C41.54558594 64.28641602 43.09117187 64.32283203 44.68359375 64.36035156 C52.70105732 64.42500853 59.30476011 64.41236655 65.50341797 58.5871582 C70.66402746 52.85059603 71.45403548 47.47122314 71.31640625 40.01171875 C70.73015773 34.43150131 68.62236577 30.71507239 64.8125 26.6875 C56.34787705 21.60872623 48.11521423 21.62094601 38.4375 21.8125 C34.003125 21.874375 29.56875 21.93625 25 22 Z " fill="#000000" transform="translate(418,17)"/>
<path d="M0 0 C8.25 0 16.5 0 25 0 C25.33 20.13 25.66 40.26 26 61 C32.12362923 54.3196772 37.86861589 47.97226066 43.48828125 40.98046875 C47.10955901 36.68336933 50.97999731 32.6357683 54.84033203 28.55419922 C58.26850841 24.91077604 61.55111119 21.21468572 64.6875 17.3125 C65.409375 16.4565625 66.13125 15.600625 66.875 14.71875 C69.10830568 11.99014425 69.10830568 11.99014425 70.9375 8.65625 C73.41044658 4.77603105 75.67432026 1.83733785 80 0 C89.88086565 -1.49987485 100.07726327 -0.73258255 110 0 C107.15093326 4.52737684 104.0025061 8.32764865 100.3125 12.1875 C96.5734727 16.16216362 92.97102575 20.17053073 89.5625 24.4375 C84.98548893 30.14000559 80.02185282 35.4320965 75.0234375 40.76171875 C72.09077865 43.89067216 69.22404134 47.06787164 66.4375 50.328125 C65.46123897 51.46355902 64.45995204 52.57785131 63.4375 53.671875 C61.8276251 55.38123616 61.8276251 55.38123616 60 58 C60.3604566 61.01863549 61.51142175 63.03744307 63.265625 65.4765625 C63.97235352 66.46849609 63.97235352 66.46849609 64.69335938 67.48046875 C65.20705078 68.18816406 65.72074219 68.89585938 66.25 69.625 C66.78431641 70.37136719 67.31863281 71.11773437 67.86914062 71.88671875 C69.57277414 74.26268261 71.28537758 76.63195692 73 79 C74.08866189 80.5077257 75.17720557 82.01553676 76.265625 83.5234375 C77.88959968 85.77198008 79.51441254 88.01989547 81.14160156 90.26611328 C85.29406148 96.00264144 89.38773428 101.77845196 93.45629883 107.57470703 C96.14189694 111.39317333 98.85553679 115.18847295 101.60546875 118.9609375 C102.20294922 119.78142578 102.80042969 120.60191406 103.41601562 121.44726562 C104.57410179 123.03436717 105.73542964 124.61910969 106.90039062 126.20117188 C107.42181641 126.91595703 107.94324219 127.63074219 108.48046875 128.3671875 C108.94348389 128.99737793 109.40649902 129.62756836 109.88354492 130.27685547 C111 132 111 132 112 135 C86.627988 137.67010221 86.627988 137.67010221 79.61083984 133.62158203 C75.77653842 129.87997121 73.53722246 125.23322233 71.25292969 120.44189453 C69.14119484 116.3262336 66.33780169 112.74840947 63.5625 109.0625 C62.48141221 107.57506556 61.40330096 106.08546334 60.328125 104.59375 C59.78736328 103.84738281 59.24660156 103.10101563 58.68945312 102.33203125 C55.72789201 98.24404978 52.76991867 94.15347878 49.8125 90.0625 C49.25957275 89.29881104 48.70664551 88.53512207 48.13696289 87.74829102 C47.62383545 87.03858154 47.11070801 86.32887207 46.58203125 85.59765625 C46.13061768 84.97383057 45.6792041 84.35000488 45.21411133 83.70727539 C44.11300446 82.15890613 43.05391339 80.58087009 42 79 C38.66489696 80.11170101 37.89635827 80.99468142 35.6875 83.625 C34.85798828 84.60339844 34.85798828 84.60339844 34.01171875 85.6015625 C33.34785156 86.39304687 32.68398438 87.18453125 32 88 C31.51137985 88.47316147 31.0227597 88.94632294 30.51933289 89.43382263 C26.59394834 93.43725291 25.30449296 96.29921553 25.16775513 101.89170837 C25.17684906 102.73053055 25.18594299 103.56935272 25.1953125 104.43359375 C25.18160614 105.31153091 25.16789978 106.18946808 25.15377808 107.0940094 C25.1166304 109.87570149 25.12018243 112.65559611 25.125 115.4375 C25.10686247 117.33271001 25.08605647 119.22789647 25.0625 121.12304688 C25.00580534 125.74973627 25.00425192 130.37178316 25 135 C16.75 135 8.5 135 0 135 C0 90.45 0 45.9 0 0 Z " fill="#000000" transform="translate(802,17)"/>
<path d="M0 0 C2.90968978 3.50504417 4.75754765 7.40855882 6.66796875 11.5078125 C7.01959579 12.25282013 7.37122284 12.99782776 7.73350525 13.76541138 C8.88914257 16.21660631 10.03832661 18.67076886 11.1875 21.125 C11.99747452 22.84622145 12.80786419 24.5672476 13.61865234 26.28808594 C15.27971924 29.81554502 16.93815959 33.34421976 18.59423828 36.87402344 C20.78611243 41.54578231 22.9836236 46.21486164 25.18359375 50.8828125 C27.81137003 56.45963503 30.4363405 62.03776591 33.05859375 67.6171875 C35.73487313 73.31150541 38.41483649 79.00407319 41.09765625 84.6953125 C44.75004482 92.44404494 48.39689791 100.1953609 52.03735352 107.94970703 C52.68282896 109.32447314 53.32850178 110.6991466 53.97436523 112.07373047 C55.84551856 116.05644629 57.71291056 120.04088141 59.57437134 124.02813721 C60.4153562 125.82761824 61.2597565 127.62550182 62.10424805 129.42333984 C62.60480713 130.49793457 63.10536621 131.5725293 63.62109375 132.6796875 C64.27742798 134.08323486 64.27742798 134.08323486 64.94702148 135.51513672 C66 138 66 138 67 142 C58.09 142 49.18 142 40 142 C38.185 138.08125 36.37 134.1625 34.5 130.125 C33.92572266 128.89023926 33.35144531 127.65547852 32.75976562 126.38330078 C32.31310547 125.41376465 31.86644531 124.44422852 31.40625 123.4453125 C30.94541016 122.45031738 30.48457031 121.45532227 30.00976562 120.43017578 C29 118 29 118 29 116 C9.86 116 -9.28 116 -29 116 C-29.33 117.65 -29.66 119.3 -30 121 C-30.70954729 122.71651665 -31.47507908 124.41060619 -32.28515625 126.08203125 C-32.68871338 126.9222583 -33.09227051 127.76248535 -33.50805664 128.62817383 C-34.02102295 129.67900146 -34.53398926 130.7298291 -35.0625 131.8125 C-36.691875 135.174375 -38.32125 138.53625 -40 142 C-48.91 142 -57.82 142 -67 142 C-65.57061865 137.71185594 -64.16483519 134.06039744 -62.19921875 130.0546875 C-61.64145752 128.91088623 -61.08369629 127.76708496 -60.5090332 126.58862305 C-60.21292145 125.98513031 -59.91680969 125.38163757 -59.61172485 124.75985718 C-58.01043254 121.49419375 -56.42286308 118.22188236 -54.8359375 114.94921875 C-54.51073624 114.27879044 -54.18553497 113.60836212 -53.85047913 112.9176178 C-50.76468509 106.54123596 -47.77814205 100.12058156 -44.8125 93.6875 C-38.7479872 80.5491346 -32.54829126 67.47714509 -26.32763672 54.41210938 C-25.51654806 52.7083588 -24.70551302 51.0045827 -23.89453125 49.30078125 C-23.49184021 48.45476349 -23.08914917 47.60874573 -22.67425537 46.73709106 C-19.79305767 40.67918267 -16.92933889 34.61320649 -14.07421875 28.54296875 C-13.68052094 27.70649811 -13.28682312 26.87002747 -12.88119507 26.00820923 C-10.60297399 21.16737891 -10.60297399 21.16737891 -8.32971191 16.32421875 C-7.30387071 14.13575751 -6.27523334 11.94863035 -5.24609375 9.76171875 C-4.94491135 9.11679977 -4.64372894 8.4718808 -4.3334198 7.80741882 C-3.03188885 5.04729945 -1.69782499 2.54673749 0 0 Z M0 53 C-2.5683121 58.51534399 -5.13167816 64.0329484 -7.69042969 69.55273438 C-8.56210964 71.43129894 -9.43515269 73.30923162 -10.30957031 75.18652344 C-11.56411444 77.88052182 -12.81378506 80.57673322 -14.0625 83.2734375 C-14.45622803 84.11619232 -14.84995605 84.95894714 -15.25561523 85.82723999 C-15.61598877 86.60789825 -15.9763623 87.38855652 -16.34765625 88.19287109 C-16.66742432 88.88126068 -16.98719238 89.56965027 -17.31665039 90.27890015 C-18.12300659 92.00117438 -18.12300659 92.00117438 -18 94 C-5.79 94 6.42 94 19 94 C17.32419376 88.94676856 17.32419376 88.94676856 15.30419922 84.10595703 C14.98401825 83.4056839 14.66383728 82.70541077 14.33395386 81.98391724 C13.99429596 81.24930267 13.65463806 80.51468811 13.3046875 79.7578125 C12.95238068 78.98944061 12.60007385 78.22106873 12.23709106 77.42941284 C11.11929018 74.99326599 9.99721593 72.55911572 8.875 70.125 C8.11299744 68.46627619 7.35127571 66.80742333 6.58984375 65.1484375 C4.72980915 61.09745775 2.86594137 57.04826219 1 53 C0.67 53 0.34 53 0 53 Z " fill="#000000" transform="translate(76,10)"/>
<path d="M0 0 C3.38517486 2.76212059 4.87679464 6.53853931 6.66796875 10.41015625 C7.01959579 11.15657883 7.37122284 11.9030014 7.73350525 12.67204285 C8.89093463 15.13271713 10.03918709 17.5975599 11.1875 20.0625 C11.99727332 21.78837265 12.80766546 23.51395508 13.61865234 25.23925781 C15.28055612 28.77723838 16.93891701 32.31684514 18.59423828 35.85791016 C20.78251961 40.53804626 22.98051275 45.21353385 25.18359375 49.88671875 C27.81285198 55.46476046 30.43955176 61.04398812 33.0625 66.625 C36.06585641 73.01504142 39.07329941 79.40314771 42.08273315 85.79032898 C44.74096937 91.43281753 47.39458735 97.07746746 50.04666138 102.72285461 C52.055821 106.99775105 54.07262218 111.2689545 56.0944519 115.53787231 C57.41890299 118.3368339 58.73872169 121.13796346 60.05755615 123.9395752 C60.68070541 125.26061449 61.3058762 126.5807023 61.9331665 127.89978027 C62.79403888 129.71064298 63.6472216 131.52515535 64.5 133.33984375 C64.9846875 134.36456787 65.469375 135.38929199 65.96875 136.44506836 C67 139 67 139 67 142 C58.42 142 49.84 142 41 142 C39.7625 139.545625 38.525 137.09125 37.25 134.5625 C36.86875977 133.80912354 36.48751953 133.05574707 36.09472656 132.27954102 C33.56350632 127.23717929 31.29788372 122.17023836 29 117 C10.19 117 -8.62 117 -28 117 C-33.445 128.88 -33.445 128.88 -39 141 C-40 142 -40 142 -42.50024414 142.11352539 C-43.58426514 142.10828857 -44.66828613 142.10305176 -45.78515625 142.09765625 C-46.95498047 142.09443359 -48.12480469 142.09121094 -49.33007812 142.08789062 C-50.56177734 142.07951172 -51.79347656 142.07113281 -53.0625 142.0625 C-54.91584961 142.05573242 -54.91584961 142.05573242 -56.80664062 142.04882812 C-59.87114117 142.03699608 -62.93554721 142.02051173 -66 142 C-65.37678861 137.98175724 -64.0925027 134.79205905 -62.296875 131.15234375 C-61.73589111 130.00531982 -61.17490723 128.8582959 -60.59692383 127.67651367 C-60.29670319 127.06891205 -59.99648254 126.46131042 -59.68716431 125.83529663 C-58.06878619 122.55801374 -56.47071912 119.27084105 -54.87109375 115.984375 C-54.54280075 115.31085495 -54.21450775 114.6373349 -53.87626648 113.94340515 C-50.77262492 107.56261163 -47.78115373 101.13212713 -44.8125 94.6875 C-38.74812389 81.54833231 -32.54620263 68.47667099 -26.32763672 55.40991211 C-25.51657596 53.70557859 -24.70554086 52.00123286 -23.89453125 50.296875 C-23.49184021 49.45065079 -23.08914917 48.60442657 -22.67425537 47.7325592 C-17.50923719 36.87334763 -12.38149435 25.99652356 -7.25488281 15.11914062 C-6.91471634 14.39780945 -6.57454987 13.67647827 -6.22407532 12.93328857 C-5.59344042 11.59596043 -4.96319266 10.25844963 -4.3334198 8.92071533 C-2.92271406 5.92945317 -1.49628739 2.94949637 0 0 Z M0 52 C-2.24563632 57.01548335 -4.48754282 62.03261104 -6.72607422 67.05126953 C-7.48743134 68.75680008 -8.24978911 70.46188431 -9.01318359 72.16650391 C-10.11301568 74.62284337 -11.20918798 77.08078825 -12.3046875 79.5390625 C-12.81417435 80.67379501 -12.81417435 80.67379501 -13.33395386 81.83145142 C-13.65413483 82.5517453 -13.9743158 83.27203918 -14.30419922 84.01416016 C-14.72389481 84.95347885 -14.72389481 84.95347885 -15.15206909 85.91177368 C-16.22742897 88.56009654 -17.09611877 91.2883563 -18 94 C-5.79 94 6.42 94 19 94 C17.30917136 88.91507597 17.30917136 88.91507597 15.30419922 84.01416016 C14.82392776 82.93371933 14.82392776 82.93371933 14.33395386 81.83145142 C13.99429596 81.07496307 13.65463806 80.31847473 13.3046875 79.5390625 C12.95238068 78.74849457 12.60007385 77.95792664 12.23709106 77.1434021 C11.11901816 74.63608709 9.99707198 72.13052752 8.875 69.625 C8.11302418 67.91808349 7.35130271 66.2110534 6.58984375 64.50390625 C4.72950382 60.33461729 2.86568986 56.16689753 1 52 C0.67 52 0.34 52 0 52 Z " fill="#000000" transform="translate(342,10)"/>
<path d="M0 0 C1.02642687 0.97285553 2.04228212 1.95943455 3 3 C1.67879172 5.93230193 0.25361803 7.98664899 -2.0390625 10.234375 C-2.61914062 10.80800781 -3.19921875 11.38164063 -3.796875 11.97265625 C-4.40015625 12.55917969 -5.0034375 13.14570312 -5.625 13.75 C-6.23601562 14.35199219 -6.84703125 14.95398438 -7.4765625 15.57421875 C-8.97988624 17.05405305 -10.48934856 18.52764676 -12 20 C-14.93356627 18.6187244 -17.48668613 17.00394678 -20.125 15.125 C-30.35787871 8.21865117 -40.77024685 6.04265438 -53 7 C-65.79198619 9.58200413 -77.06507936 15.57353249 -84.65625 26.3515625 C-91.91815781 37.8495832 -94.43795444 49.6166278 -91.9375 63.125 C-90.1327761 70.54258079 -87.2957481 77.72187622 -81.80859375 83.1796875 C-80 85 -80 85 -80 87 C-79.4225 87.27070312 -78.845 87.54140625 -78.25 87.8203125 C-75.98833002 89.00611863 -74.05953997 90.36935146 -72 91.875 C-60.63292505 99.40384185 -47.77873044 100.97797048 -34.5625 98.3046875 C-28.77913399 96.54902282 -23.91805167 94.01176393 -19.03515625 90.46484375 C-16.78091083 88.84230626 -14.3816471 87.42898826 -12 86 C-7.05 90.95 -2.1 95.9 3 101 C-2.03898315 111.07796629 -13.46214377 116.37858724 -23.75 119.8125 C-41.89904172 125.67866516 -61.20174138 124.30484592 -78.4375 116.1875 C-83.76355419 113.30855179 -88.4627335 110.00104409 -93 106 C-93.75023437 105.34386719 -94.50046875 104.68773437 -95.2734375 104.01171875 C-106.50564792 93.52704452 -115.04864986 78.11944643 -116.17700195 62.55908203 C-116.70717214 40.48625938 -113.49372977 21.85429027 -98 5 C-71.03902847 -23.13522987 -30.05991811 -23.09639751 0 0 Z " fill="#000000" transform="translate(787,31)"/>
<path d="M0 0 C298.65 0 597.3 0 905 0 C905 2.31 905 4.62 905 7 C606.35 7 307.7 7 0 7 C0 4.69 0 2.38 0 0 Z " fill="#000000" transform="translate(9,181)"/>
<path d="M0 0 C3.25375735 4.15269859 5.45282151 8.58408056 7.75 13.3125 C8.38615234 14.55676758 8.38615234 14.55676758 9.03515625 15.82617188 C11.53562778 20.98593967 12.70012066 24.28785216 11 30 C9.72647001 33.11856197 8.26781058 36.1188509 6.75 39.125 C4.12269364 44.37961273 1.72148939 49.61410155 -0.3359375 55.12109375 C-3.01087733 62.21549939 -6.15566412 69.03739487 -9.40136719 75.88354492 C-10.3713877 77.92987957 -11.33469128 79.97926746 -12.296875 82.02929688 C-15.89897302 89.68182001 -19.60612918 97.26925859 -23.45605469 104.80029297 C-25.10594009 108.21955262 -26.5025483 111.64831164 -27.875 115.1875 C-31.43637659 124.36191579 -35.72883834 133.13410382 -40 142 C-48.91 142 -57.82 142 -67 142 C-65.57061865 137.71185594 -64.16483519 134.06039744 -62.19921875 130.0546875 C-61.64145752 128.91088623 -61.08369629 127.76708496 -60.5090332 126.58862305 C-60.21292145 125.98513031 -59.91680969 125.38163757 -59.61172485 124.75985718 C-58.01043254 121.49419375 -56.42286308 118.22188236 -54.8359375 114.94921875 C-54.51073624 114.27879044 -54.18553497 113.60836212 -53.85047913 112.9176178 C-50.76468509 106.54123596 -47.77814205 100.12058156 -44.8125 93.6875 C-38.7479872 80.5491346 -32.54829126 67.47714509 -26.32763672 54.41210938 C-25.51654806 52.7083588 -24.70551302 51.0045827 -23.89453125 49.30078125 C-23.49184021 48.45476349 -23.08914917 47.60874573 -22.67425537 46.73709106 C-19.79305767 40.67918267 -16.92933889 34.61320649 -14.07421875 28.54296875 C-13.68052094 27.70649811 -13.28682312 26.87002747 -12.88119507 26.00820923 C-10.60297399 21.16737891 -10.60297399 21.16737891 -8.32971191 16.32421875 C-7.30387071 14.13575751 -6.27523334 11.94863035 -5.24609375 9.76171875 C-4.94491135 9.11679977 -4.64372894 8.4718808 -4.3334198 7.80741882 C-3.03188885 5.04729945 -1.69782499 2.54673749 0 0 Z " fill="#984F8F" transform="translate(76,10)"/>
<path d="M0 0 C3.155625 -0.061875 6.31125 -0.12375 9.5625 -0.1875 C10.5429126 -0.21481201 11.5233252 -0.24212402 12.53344727 -0.27026367 C18.15227553 -0.32324461 22.04783203 0.28933964 27 3 C30.05965491 6.45444909 30.46938262 9.61346804 30.29296875 14.07421875 C29.63299847 18.4124234 27.01276398 21.05474894 24 24 C24.75796875 25.04800781 24.75796875 25.04800781 25.53125 26.1171875 C26.50578125 27.48230469 26.50578125 27.48230469 27.5 28.875 C28.1496875 29.77992188 28.799375 30.68484375 29.46875 31.6171875 C31 34 31 34 31 36 C27.49057679 36.63550923 24.48257844 36.86046163 21 36 C18.74767049 33.58863195 17.24942823 31.17569016 15.66796875 28.28515625 C13.96133226 25.40604359 13.96133226 25.40604359 9 25 C9 28.63 9 32.26 9 36 C6.03 36 3.06 36 0 36 C0 24.12 0 12.24 0 0 Z M9 8 C9 10.97 9 13.94 9 17 C15.39825263 17.47326369 15.39825263 17.47326369 21 15 C21.5 12.5 21.5 12.5 21 10 C16.7975546 7.19836974 13.99895065 7.85510288 9 8 Z " fill="#000000" transform="translate(532,217)"/>
<path d="M0 0 C4.3115433 2.54611713 6.93246673 5.7906829 8.625 10.5 C9.53634776 16.67788628 9.36735848 22.30898662 5.625 27.5 C0.86547718 32.27077465 -2.67317147 34.62787766 -9.5625 34.8125 C-15.93539911 34.71989513 -20.44476451 33.47311699 -24.9765625 28.875 C-28.58194362 24.04096945 -29.13636132 19.34205702 -28.8515625 13.40625 C-27.97667645 8.07087931 -25.87253143 4.48898431 -21.6484375 1.125 C-15.07395614 -2.77098896 -6.99522721 -2.95647339 0 0 Z M-18.375 10.5 C-19.97586627 13.70173254 -19.87417089 17.02577059 -19.375 20.5 C-17.58136089 23.3100346 -16.35619065 25.00940468 -13.375 26.5 C-9.19355989 26.89447548 -7.06553952 26.95035186 -3.5 24.625 C-0.57461143 21.69961143 -0.40996675 20.92659437 -0.0625 16.6875 C-0.09267976 13.36772673 -0.3689012 12.50955479 -2.25 9.5625 C-4.98397987 6.9089313 -5.84884331 6.54963742 -9.6875 6.1875 C-13.95036111 6.54875942 -15.39492054 7.51992054 -18.375 10.5 Z " fill="#000000" transform="translate(429.375,218.5)"/>
<path d="M0 0 C8.91 0 17.82 0 27 0 C27 2.64 27 5.28 27 8 C21.06 8 15.12 8 9 8 C9 9.98 9 11.96 9 14 C14.28 14 19.56 14 25 14 C25 16.64 25 19.28 25 22 C19.72 22 14.44 22 9 22 C9 23.98 9 25.96 9 28 C14.94 28 20.88 28 27 28 C27 30.64 27 33.28 27 36 C18.09 36 9.18 36 0 36 C0 24.12 0 12.24 0 0 Z " fill="#000000" transform="translate(762,217)"/>
<path d="M0 0 C8.91 0 17.82 0 27 0 C27 2.64 27 5.28 27 8 C21.06 8 15.12 8 9 8 C9 9.98 9 11.96 9 14 C14.28 14 19.56 14 25 14 C25 16.64 25 19.28 25 22 C19.72 22 14.44 22 9 22 C9 23.98 9 25.96 9 28 C14.94 28 20.88 28 27 28 C27 30.64 27 33.28 27 36 C18.09 36 9.18 36 0 36 C0 24.12 0 12.24 0 0 Z " fill="#000000" transform="translate(492,217)"/>
<path d="M0 0 C8.91 0 17.82 0 27 0 C27 2.64 27 5.28 27 8 C20.73 8 14.46 8 8 8 C8 9.98 8 11.96 8 14 C13.28 14 18.56 14 24 14 C24 16.64 24 19.28 24 22 C18.72 22 13.44 22 8 22 C8 23.98 8 25.96 8 28 C14.27 28 20.54 28 27 28 C27 30.64 27 33.28 27 36 C18.09 36 9.18 36 0 36 C0 24.12 0 12.24 0 0 Z " fill="#000000" transform="translate(303,217)"/>
<path d="M0 0 C2.64 0 5.28 0 8 0 C11.81546985 7.35363773 15.14697582 14.84646598 18.3125 22.5 C18.76689453 23.5828125 19.22128906 24.665625 19.68945312 25.78125 C20.11806641 26.8125 20.54667969 27.84375 20.98828125 28.90625 C21.56896362 30.30327148 21.56896362 30.30327148 22.16137695 31.72851562 C23 34 23 34 23 36 C20.03 36 17.06 36 14 36 C13.01 33.69 12.02 31.38 11 29 C4.07 28.505 4.07 28.505 -3 28 C-3.309375 29.134375 -3.61875 30.26875 -3.9375 31.4375 C-5 35 -5 35 -6 36 C-8.67058851 36.14115161 -11.32432238 36.04247107 -14 36 C-13.41116438 31.24475453 -11.99811916 27.19500524 -10.05859375 22.8515625 C-9.77146011 22.19417084 -9.48432648 21.53677917 -9.18849182 20.85946655 C-8.27782992 18.77846236 -7.35784482 16.70173725 -6.4375 14.625 C-5.81513261 13.20730441 -5.19338142 11.78933813 -4.57226562 10.37109375 C-3.05528646 6.9108909 -1.52993703 3.45449187 0 0 Z M4 12 C1.7986134 15.80427492 1.7986134 15.80427492 1 20 C2.98 20 4.96 20 7 20 C6.45276317 16.62537285 5.9451 14.91765 4 12 Z " fill="#000000" transform="translate(188,217)"/>
<path d="M0 0 C2.05078125 0.03255208 4.1015625 0.06510417 6.15234375 0.09765625 C8.15559331 4.57756768 10.14911784 9.06163176 12.13378906 13.54980469 C12.81017342 15.07572261 13.48919108 16.60047613 14.17089844 18.12402344 C15.15084902 20.3153415 16.12122404 22.51068542 17.08984375 24.70703125 C17.39607666 25.38634705 17.70230957 26.06566284 18.01782227 26.76556396 C19.51293267 30.18134759 20.15234375 32.29762093 20.15234375 36.09765625 C14.8430695 36.53284266 14.8430695 36.53284266 12.15234375 36.09765625 C9.69912731 33.26112474 9.15234375 31.84642129 9.15234375 28.09765625 C4.53234375 28.42765625 -0.08765625 28.75765625 -4.84765625 29.09765625 C-6.33265625 32.56265625 -6.33265625 32.56265625 -7.84765625 36.09765625 C-10.81765625 36.09765625 -13.78765625 36.09765625 -16.84765625 36.09765625 C-14.42737485 28.39227057 -11.39082992 21.0230633 -8.22265625 13.59765625 C-7.71992187 12.4065625 -7.2171875 11.21546875 -6.69921875 9.98828125 C-2.51404741 0.13287777 -2.51404741 0.13287777 0 0 Z M1.15234375 12.09765625 C-0.33265625 16.05765625 -0.33265625 16.05765625 -1.84765625 20.09765625 C0.46234375 20.09765625 2.77234375 20.09765625 5.15234375 20.09765625 C4.55372633 17.74594494 3.88310023 15.41171845 3.15234375 13.09765625 C2.49234375 12.76765625 1.83234375 12.43765625 1.15234375 12.09765625 Z " fill="#000000" transform="translate(649.84765625,216.90234375)"/>
<path d="M0 0 C2.97 0 5.94 0 9 0 C9.01458252 0.7113208 9.02916504 1.4226416 9.04418945 2.15551758 C9.11861006 5.37506332 9.21529 8.59356518 9.3125 11.8125 C9.33505859 12.93205078 9.35761719 14.05160156 9.38085938 15.20507812 C9.41630859 16.27822266 9.45175781 17.35136719 9.48828125 18.45703125 C9.51446533 19.44678955 9.54064941 20.43654785 9.56762695 21.45629883 C10.06263246 24.36847408 10.62054965 25.29708413 13 27 C16 27.66666667 16 27.66666667 19 27 C23.14108035 22.40645006 22.55677097 16.52548496 22.6875 10.6875 C22.72166016 9.66076172 22.75582031 8.63402344 22.79101562 7.57617188 C22.87323409 5.05089037 22.94246936 2.5259446 23 0 C25.64 0 28.28 0 31 0 C31.08742801 4.20820145 31.14053641 8.41616776 31.1875 12.625 C31.21263672 13.81480469 31.23777344 15.00460938 31.26367188 16.23046875 C31.35611846 27.26242841 31.35611846 27.26242841 28 32 C23.31632132 36.2445838 18.72677081 36.28677989 12.66015625 36.21484375 C7.95894374 35.83515698 5.89584168 33.94561066 2.75 30.625 C-0.0416052 26.43759221 -0.12524708 22.41922779 -0.09765625 17.48046875 C-0.09443359 16.45888672 -0.09121094 15.43730469 -0.08789062 14.38476562 C-0.07951172 13.32966797 -0.07113281 12.27457031 -0.0625 11.1875 C-0.05798828 10.11306641 -0.05347656 9.03863281 -0.04882812 7.93164062 C-0.03707729 5.28770317 -0.02064787 2.64388048 0 0 Z " fill="#000000" transform="translate(717,217)"/>
<path d="M0 0 C2.64 0 5.28 0 8 0 C8.01458252 0.64026123 8.02916504 1.28052246 8.04418945 1.94018555 C8.11891382 4.85654831 8.21549293 7.77179687 8.3125 10.6875 C8.33505859 11.69490234 8.35761719 12.70230469 8.38085938 13.74023438 C8.50743107 20.9217346 8.50743107 20.9217346 12 27 C15 27.66666667 15 27.66666667 18 27 C20.37945035 25.29708413 20.93736754 24.36847408 21.43237305 21.45629883 C21.45855713 20.46654053 21.48474121 19.47678223 21.51171875 18.45703125 C21.54716797 17.38388672 21.58261719 16.31074219 21.61914062 15.20507812 C21.64169922 14.08552734 21.66425781 12.96597656 21.6875 11.8125 C21.72166016 10.68134766 21.75582031 9.55019531 21.79101562 8.38476562 C21.87356314 5.5899426 21.94269182 2.79543602 22 0 C24.97 0 27.94 0 31 0 C31.08770383 3.85402129 31.14062735 7.70778291 31.1875 11.5625 C31.21263672 12.64853516 31.23777344 13.73457031 31.26367188 14.85351562 C31.32002637 21.03372535 31.10430949 25.59320503 28 31 C22.87032134 35.75433632 19.58566553 36.29016404 12.765625 36.21875 C8.17408841 35.85557761 5.25607855 34.38601772 2.1875 31 C-0.02356904 27.27609424 -0.11833979 24.25965677 -0.09765625 20.01953125 C-0.09443359 18.85615234 -0.09121094 17.69277344 -0.08789062 16.49414062 C-0.07951172 15.27919922 -0.07113281 14.06425781 -0.0625 12.8125 C-0.05798828 11.58595703 -0.05347656 10.35941406 -0.04882812 9.09570312 C-0.03703065 6.06375332 -0.02056921 3.03190094 0 0 Z " fill="#000000" transform="translate(258,217)"/>
<path d="M0 0 C3.625 1.3125 3.625 1.3125 6 3 C6.33 3.99 6.66 4.98 7 6 C5.5625 8.6875 5.5625 8.6875 4 11 C3.154375 10.690625 2.30875 10.38125 1.4375 10.0625 C-2.0497854 8.98461179 -5.38177535 8.43418696 -9 8 C-9 8.99 -9 9.98 -9 11 C-8.10796875 11.31453125 -7.2159375 11.6290625 -6.296875 11.953125 C-4.54117187 12.59507812 -4.54117187 12.59507812 -2.75 13.25 C-1.00976562 13.87648437 -1.00976562 13.87648437 0.765625 14.515625 C4.03064995 16.0140664 5.84488598 17.14564802 8 20 C8.80272212 23.40464899 8.65464853 26.57141703 8 30 C5.47323961 33.34625024 3.96066458 34.67977847 0 36 C-7.27567642 36.80111239 -12.60481477 35.46019684 -19 32 C-19 30.68 -19 29.36 -19 28 C-16.5 25.75 -16.5 25.75 -14 24 C-13.34 24.495 -12.68 24.99 -12 25.5 C-8.03366759 27.48316621 -5.39696738 27.22357461 -1 27 C-1.33 26.01 -1.66 25.02 -2 24 C-4.91405606 22.63077894 -4.91405606 22.63077894 -8.375 21.5 C-16.07836328 18.83542201 -16.07836328 18.83542201 -18 16 C-18.68955439 12.60969089 -18.59693351 9.40252099 -18 6 C-12.85387956 -0.63578688 -7.93888271 -0.63734692 0 0 Z " fill="#000000" transform="translate(360,217)"/>
<path d="M0 0 C3.3 0 6.6 0 10 0 C11.17261226 3.10203804 12.33828932 6.20638167 13.5 9.3125 C13.83386719 10.19357422 14.16773438 11.07464844 14.51171875 11.98242188 C14.82753906 12.82998047 15.14335938 13.67753906 15.46875 14.55078125 C15.90864258 15.72120972 15.90864258 15.72120972 16.35742188 16.9152832 C17 19 17 19 17 22 C17.66 22 18.32 22 19 22 C19.226875 20.783125 19.45375 19.56625 19.6875 18.3125 C21.07862675 11.95596464 23.56385319 6.01598086 26 0 C28.97 0 31.94 0 35 0 C34.39451018 4.68705593 33.06579277 8.8028665 31.27734375 13.1484375 C30.87993736 14.13452499 30.87993736 14.13452499 30.47450256 15.14053345 C29.63451863 17.22104354 28.78616677 19.29801877 27.9375 21.375 C27.36337408 22.79274283 26.78980069 24.21070954 26.21679688 25.62890625 C24.81757872 29.08854987 23.41083966 32.54507671 22 36 C19.36 36 16.72 36 14 36 C10.45966626 28.40983111 7.22351258 20.74222452 4.1875 12.9375 C3.78080078 11.90689453 3.37410156 10.87628906 2.95507812 9.81445312 C2.57158203 8.83283203 2.18808594 7.85121094 1.79296875 6.83984375 C1.27512817 5.51521118 1.27512817 5.51521118 0.74682617 4.16381836 C0 2 0 2 0 0 Z " fill="#000000" transform="translate(593,217)"/>
<path d="M0 0 C2.97 0 5.94 0 9 0 C9.47179687 1.14275391 9.47179687 1.14275391 9.953125 2.30859375 C10.38109375 3.34113281 10.8090625 4.37367188 11.25 5.4375 C11.66765625 6.44683594 12.0853125 7.45617187 12.515625 8.49609375 C14.29096061 12.68682018 16.1515566 16.84100234 18 21 C20.64 14.07 23.28 7.14 26 0 C28.97 0 31.94 0 35 0 C34.39451018 4.68705593 33.06579277 8.8028665 31.27734375 13.1484375 C30.87993736 14.13452499 30.87993736 14.13452499 30.47450256 15.14053345 C29.63451863 17.22104354 28.78616677 19.29801877 27.9375 21.375 C27.36337408 22.79274283 26.78980069 24.21070954 26.21679688 25.62890625 C24.81757872 29.08854987 23.41083966 32.54507671 22 36 C19.36 36 16.72 36 14 36 C10.46347371 29.23267516 7.5774769 22.27674077 4.75 15.1875 C4.29109375 14.05634766 3.8321875 12.92519531 3.359375 11.75976562 C2.92625 10.67759766 2.493125 9.59542969 2.046875 8.48046875 C1.65338867 7.49973389 1.25990234 6.51899902 0.85449219 5.50854492 C0 3 0 3 0 0 Z " fill="#000000" transform="translate(446,217)"/>
<path d="M0 0 C2.97 0 5.94 0 9 0 C11.64 6.93 14.28 13.86 17 21 C18.11375 18.3084375 18.11375 18.3084375 19.25 15.5625 C21.42493546 10.33893707 23.67812082 5.15973151 26 0 C28.97 0 31.94 0 35 0 C32.77022052 7.90759545 29.95872471 15.4509432 26.875 23.0625 C26.41996094 24.20138672 25.96492188 25.34027344 25.49609375 26.51367188 C22.13603584 34.86396416 22.13603584 34.86396416 21 36 C18.32941149 36.14115161 15.67567762 36.04247107 13 36 C11.14205832 31.35780651 9.29083357 26.71301308 7.44580078 22.06567383 C6.81711087 20.48486112 6.186587 18.9047765 5.55419922 17.32543945 C4.64588792 15.05608713 3.7441897 12.78420391 2.84375 10.51171875 C2.55939087 9.80536789 2.27503174 9.09901703 1.98205566 8.3712616 C0.82167298 5.42668503 0 3.19559771 0 0 Z " fill="#000000" transform="translate(134,217)"/>
<path d="M0 0 C2.97 0 5.94 0 9 0 C9 9.24 9 18.48 9 28 C14.61 28 20.22 28 26 28 C26 30.64 26 33.28 26 36 C17.42 36 8.84 36 0 36 C0 24.12 0 12.24 0 0 Z " fill="#000000" transform="translate(681,217)"/>
<path d="M0 0 C2.64 0 5.28 0 8 0 C8 9.24 8 18.48 8 28 C13.61 28 19.22 28 25 28 C25 30.64 25 33.28 25 36 C16.75 36 8.5 36 0 36 C0 24.12 0 12.24 0 0 Z " fill="#000000" transform="translate(222,217)"/>
</svg>
